<svg width="28" height="29" viewBox="0 0 28 29" fill="none" stroke="@fill" xmlns="http://www.w3.org/2000/svg">
<path d="M23.5241 10.6066C24.1902 8.10866 23.7111 7.02776 20.7428 6.70713C20.9926 4.70882 19.0775 2.87697 16.8293 3.37651C16.5795 1.1284 12.4162 0.379011 11.9999 3.20998C10.3346 2.04432 8.07231 2.79469 7.50357 5.29162C4.75581 5.37494 3.61797 7.05776 4.43387 10.9761"  stroke-width="1.4"/>
<path d="M20 10.5C20.2512 8.26079 19.9934 7.95619 18.0783 7.95619C18.4113 6.7072 16.746 5.45821 15.3305 6.7072C15.164 4.70882 11.6668 4.87535 11.5836 7.29006C11.5836 7.29006 10.1439 7.3867 9.25213 8.6223C8.66096 9.44138 8.6214 10.3603 8.6214 10.3603"  stroke-width="1.4"/>
<path d="M8.50277 10.8983C8.50277 10.8983 7.92183 9.78809 6.42305 9.78809C4.92427 9.78809 4.33951 10.8983 4.33951 10.8983C4.33951 10.8983 6.09694 23.6974 6.61735 25.779C7.13776 27.8607 9.44838 27.7774 9.44838 27.7774"  stroke-width="1.4"/>
<path d="M11.2921 11.6326L12.0186 27.573H9.90226L8.63985 11.1658C8.68888 11.1129 8.7543 11.0509 8.83753 10.9889C9.06767 10.8176 9.46004 10.6257 10.0885 10.6582C10.6395 10.6867 10.9199 10.9399 11.0836 11.1779C11.1718 11.3061 11.2283 11.4358 11.2622 11.534C11.2765 11.5754 11.2861 11.6093 11.2921 11.6326Z"  stroke-width="1.4"/>
<path d="M19.3485 10.8983C19.3485 10.8983 19.9294 9.78809 21.4282 9.78809C22.927 9.78809 23.5117 10.8983 23.5117 10.8983C23.5117 10.8983 21.7543 23.6974 21.2339 25.779C20.7135 27.8607 18.4029 27.7774 18.4029 27.7774"  stroke-width="1.4"/>
<path d="M16.5591 11.6326L15.8326 27.573H17.949L19.2114 11.1658C19.1623 11.1129 19.0969 11.0509 19.0137 10.9889C18.7835 10.8176 18.3912 10.6257 17.7627 10.6582C17.2117 10.6867 16.9313 10.9399 16.7676 11.1779C16.6794 11.3061 16.623 11.4358 16.589 11.534C16.5747 11.5754 16.5651 11.6093 16.5591 11.6326Z"  stroke-width="1.4"/>
<path d="M11.5 11.4999C12.3639 9.4183 15.6673 9.58491 16.5 11.5M15.8741 27.7739H13.9814H12.125"  stroke-width="1.4"/>
</svg>
